<?xml version="1.0" encoding="UTF-8" standalone="no"?>
<!-- Created with Inkscape (http://www.inkscape.org/) -->

<svg
   version="1.1"
   id="svg1"
   width="703"
   height="751"
   viewBox="0 0 703 751"
   xmlns="http://www.w3.org/2000/svg"
   xmlns:svg="http://www.w3.org/2000/svg">
  <defs
     id="defs1" />
  <g
     id="g1"
     style="fill:#ffffff">
    <path
       style="fill:#ffffff;stroke:none"
       d="m 212.37212,37.190794 c -11.77908,4.487243 -20.72383,25.453247 -25.42438,36.25769 -16.48321,37.887566 -19.85136,76.636116 -6.23149,116.000006 4.71016,13.61322 12.12802,27.55603 20.89198,39 3.72025,4.85791 8.79741,10.9902 15.74923,8.39584 5.15596,-1.92416 10.1804,-9.95334 8.1412,-15.39584 -1.82551,-4.87219 -6.69084,-8.81232 -9.6983,-13 -5.57367,-7.76093 -10.07466,-16.1438 -13.62808,-25 -12.61835,-31.44873 -11.29393,-69.5113 3.45832,-100.000006 5.42501,-11.211914 18.27016,-22.548706 21.4923,-34 2.31361,-8.222473 -7.3929,-15.060669 -14.75078,-12.25769 m 269.01544,0 c -17.49911,6.859314 2.99903,25.327819 7.91898,33.25769 21.51733,34.681026 24.64905,79.589606 8.63809,117.000006 -5.2467,12.25922 -17.2417,22.10339 -21.69907,34 -2.89114,7.71637 6.28443,17.66663 14.1258,15.56558 10.86487,-2.91116 18.16287,-21.58658 23.13965,-30.56558 20.97604,-37.84442 21.21011,-85.53949 4.84951,-125.000006 -5.38348,-12.984619 -11.88934,-25.929932 -20.65738,-36.999207 -3.94628,-4.981994 -9.47906,-9.938293 -16.31558,-7.258483 M 245.37212,64.306516 c -9.00938,3.638062 -14.20029,16.02887 -18.24692,24.141968 -12.91079,25.884826 -15.57199,57.771126 -5.32792,85.000006 3.61703,9.61414 16.03526,41.43152 30.55941,33.97223 6.71691,-3.44965 9.29718,-11.8031 5.22608,-17.97223 -17.39363,-26.3573 -26.31873,-53.99213 -13.75772,-85.00001 3.73483,-9.219723 15.67862,-19.721371 16.93211,-28.999996 1.08231,-8.011414 -8.39117,-13.966125 -15.38504,-11.141968 m 203.00385,-0.115722 c -6.9715,2.686584 -9.07468,10.382263 -5.06403,16.25769 17.00256,24.908076 27.26959,53.017336 15.99536,83.000006 -3.79489,10.09216 -15.91553,21.07629 -17.41125,31 -1.12293,7.45013 7.15564,15.52075 14.47607,13.56555 9.27664,-2.47772 15.37079,-16.70831 19.24384,-24.56555 13.4877,-27.36261 13.71786,-59.82196 2.30322,-88.000006 -4.04874,-9.994629 -15.00305,-36.861023 -29.54321,-31.25769 m -171,28.285461 c -5.83402,2.956543 -8.84046,10.310725 -11.28318,15.972225 -7.0901,16.43281 -7.77237,35.18769 -1.49148,52.00001 2.82235,7.55475 10.82119,25.14636 21.75537,19.80634 4.27194,-2.08631 7.9819,-7.9762 6.97687,-12.80634 -2.38965,-11.4845 -11.28196,-19.03638 -10.44754,-32 0.48269,-7.49927 1.88671,-15.10077 4.92593,-22.00001 1.79871,-4.08313 6.47015,-9.2558 5.4892,-13.999996 -1.37323,-6.641357 -10.18247,-9.882507 -15.92517,-6.972229 m 137,0 c -4.15653,2.108215 -7.01389,6.362059 -5.48072,10.972225 4.7869,14.39393 11.89664,24.92329 9.19138,41.00001 -1.40317,8.33862 -10.14972,17.06006 -9.84491,25 0.26687,6.95135 7.24835,13.45062 14.1304,10.84802 7.01578,-2.6532 10.81973,-10.3681 13.57175,-16.84802 6.92148,-16.29736 7.52124,-35.45996 0.97842,-52.00001 -3.36792,-8.51398 -10.46411,-25.10046 -22.54632,-18.972225 M 131.37212,358.44849 c 2.38334,4.35602 6.93555,6.62372 11,9.33334 4.32404,2.88269 10.77432,9.66672 16,10.13581 8.99702,0.80761 23.27731,-12.40338 30,-17.46915 l 1,1 c -3.86208,13.06592 -1.01025,30.55438 -0.0895,44 0.63326,9.24738 -0.91049,18.69745 -0.91049,28 5.7126,-2.20056 20.4613,-3.56552 23.97221,-8.51312 2.86416,-4.0362 1.02778,-13.71607 1.02778,-18.48688 v -42 c 0,-5.05984 -1.54776,-13.28918 1.02779,-17.81558 4.84379,-8.51273 20.92456,-14.27573 28.97221,-19.52854 24.84741,-16.21829 50.26364,-31.57864 75,-47.98846 7.86703,-5.2189 16.00287,-10.07251 24,-15.0918 2.86771,-1.79986 6.50488,-5.49063 10,-5.7446 8.50885,-0.61825 23.88177,14.13623 31,18.59336 29.16772,18.26349 58.7471,36.65622 87,56.29629 4.90521,3.40988 11.51163,6.4061 15.56635,10.79709 5.68795,6.15967 0.51446,11.44364 11.43365,11.48224 -15.34521,17.80972 -44.22208,18.72375 -66,25 -56.7724,16.36139 -114.19482,30.38309 -171,46.5787 -19.29123,5.5001 -38.72023,10.46476 -58,16 -8.42137,2.41779 -15.73962,7.65616 -14.8912,17.42054 0.94158,10.83673 12.16838,5.64172 18.8912,3.70987 19.61481,-5.63648 39.3768,-10.69309 59,-16.28781 61.40747,-17.50776 123.06152,-35.56324 185,-51.04786 15.62759,-3.90689 31.64786,-7.5364 47,-12.402 3.86856,-1.22608 13.73874,-2.84345 15.96838,-6.28855 2.31604,-3.57855 0.22019,-11.29648 1.03162,-15.68289 8.54132,4.04059 18.24274,14.75293 28,15.24228 7.45551,0.37393 22.52667,-12.97311 29,-17.24228 v -2 c -23.29559,-14.25772 -46.25903,-28.84665 -69,-44 -9.97202,-6.64481 -23.7576,-13.16858 -31.69678,-22.18442 -7.42425,-8.43109 -2.30322,-31.09485 -2.30322,-41.81558 0,-3.32803 1.17505,-9.61533 -1.02777,-12.39661 -2.33978,-2.95419 -9.65674,-1.60339 -12.97223,-1.60339 h -35 l -2,20 -41,-26.57483 -16.39661,-12.44061 -2.60339,-56.98456 c 5.2803,-1.25482 9.91998,-3.52075 13.98456,-7.18518 28.92114,-26.07404 -6.85343,-75.125434 -38.98456,-51.2577 -15.36182,11.41113 -18.39194,34.58558 -5.47144,49.25843 4.24891,4.82514 13.29978,6.16486 16.44367,11.409 2.306,3.84649 0.1449,9.5935 0.0424,13.77545 -0.29697,12.12 3.98514,32.11517 -2.00305,42.99615 -4.21897,7.66614 -14.81284,13.29102 -22.0116,17.81479 -12.90451,8.10932 -25.09531,17.28727 -38,25.41745 -32.98874,20.78348 -65.33994,42.79386 -98,64.11573 -16.28669,10.63266 -33.76492,24.75439 -51.99998,31.65588 m 235,-225 c -1.83087,-5.37683 -4.08005,-10.99585 -9.01544,-14.27234 -3.17444,-2.10742 -9.0513,-2.13605 -10.84799,-5.95142 -2.96747,-6.30158 6.87042,-8.09968 10.86343,-7.58722 11.94452,1.53295 22.13336,20.92396 9,27.81098 m 192,224 v 1 c -19.67938,-5.66928 -40.04611,-22.03183 -57,-33.33334 -29.08197,-19.38614 -58.90448,-37.63843 -88,-57 -14.20505,-9.45273 -28.55515,-18.55689 -43,-27.61652 -4.91306,-3.08142 -12.00723,-9.75296 -18,-9.99301 -7.25064,-0.29047 -17.24866,9.11713 -24,11.94287 4.20184,-5.1618 18.02393,-18.2356 25,-18.06018 4.64041,0.1167 10.25327,5.28308 14,7.7168 10.56146,6.86032 21.30429,13.5029 32,20.15124 53.71841,33.39081 103.12241,75.45215 159,105.19214 m -122,-111 v -2 c 3.70898,-0.88306 26.3642,-4.67316 26.3642,0.99924 0,4.39834 -22.8032,2.05334 -26.3642,1.00076 m -116,63 v 27 h 26 v -27 h -26 m 36,0 v 27 h 26 v -27 h -26 m -36,36 v 27 h 26 v -27 h -26 m 36,0 v 27 h 26 v -27 h -26 m 157,46 c -42.83398,16.39615 -89.87195,24.84622 -134,37.42749 -32.57739,9.28809 -65.332,17.78247 -98,26.72452 -16.40628,4.49081 -33.1675,11.3714 -50,13.84799 v 2 c 11.46201,0.49976 21.7592,10.85507 32,10.70755 16.29755,-0.23474 36.08197,-10.20233 52,-14.233 45.58105,-11.54178 90.69327,-25.04755 136,-37.46375 15.54187,-4.25921 31.82129,-7.15597 47,-12.59723 3.9072,-1.40063 11.14871,-1.78613 14.25772,-4.42669 3.76178,-3.19501 2.46402,-17.8837 0.74228,-21.98688 m -164,80 v 1 c 11.61734,0 28.14526,-4.75897 31,11 l 33,-14.07254 26,-0.81174 75,-21.11572 v -22 c -22.19,1.93738 -46.63449,12.84521 -68,19.28009 -32.0947,9.66629 -65.13235,16.35062 -97,26.71991 m 140,-5 v 5 l 25,2 1,-12 -26,5 m -274,17.43906 c -7.14676,1.11618 -14.0031,3.1886 -20,7.33487 -40.22037,27.80847 -17.08209,94.98877 33,87.79785 7.81396,-1.12195 15.48587,-3.44684 22,-8.0116 41.91513,-29.37183 16.09396,-95.10104 -35,-87.12112 m 179,62.56094 -13,20 c 17.7114,8.27905 33.75549,16.31201 54,11.49695 17.65894,-4.20014 29.89502,-24.59284 20.04474,-41.4931 -6.51117,-11.17127 -19.61728,-13.32007 -31.04474,-16.58259 -4.14075,-1.18212 -12.3642,-2.703 -12.3642,-8.41046 0,-14.30938 26.12677,-0.24176 30.3642,2.9892 3.60019,-2.77856 14.13199,-13.88397 12.65817,-18.81482 -1.69412,-5.66797 -14.61953,-9.25812 -19.65817,-10.52005 -19.33676,-4.84296 -45.32816,1.40167 -48.69907,24.33487 -2.83923,19.3161 12.55759,28.00037 28.69907,32.35956 4.91644,1.32776 19.92325,3.2464 16.63196,11.58258 -5.64588,14.29986 -30.41901,-4.20819 -37.63196,-6.94214 m 172,0 -13,20 c 16.63104,8.85168 32.59924,16.18561 52,11.98535 17.76831,-3.84686 31.23376,-24.45172 21.58258,-41.9815 -5.72186,-10.39283 -20.15503,-12.89448 -30.58258,-15.86341 -4.40582,-1.25445 -13.0155,-2.80975 -14.24847,-8.17981 -2.93982,-12.80395 22.19287,-3.97552 26.24847,-1.79162 2.04053,1.09875 4.42334,3.06848 6.90662,2.38421 4.80786,-1.32483 14.74823,-15.6676 9.92596,-19.58716 -23.31683,-18.95217 -78.22943,-9.66919 -67.04321,29.03394 6.52905,22.58972 32.50415,12.47595 44.87732,25.41895 5.40313,5.65197 -3.72681,10.52478 -8.66669,10.44757 -10.38135,-0.16224 -19.57043,-6.66913 -28,-11.86652 m -490.000002,-61 v 93 h 24.000002 v -35 h 34 v 35 h 25 v -60 l 1,-33 h -26 v 37 l -34,-1 1,-36 H 76.372118 m 210.000002,0 c 0,13.70264 0.83395,27.36505 0.99615,41 0.14283,12.00635 -1.19961,24.05811 4.80323,35 13.49087,24.59088 57.35794,23.8183 72.23456,1 13.89028,-21.30542 2.55209,-53.22351 6.96606,-77 h -27 c 2.39639,12.90845 1,26.89862 1,40 0,6.35461 1.14481,13.99524 -1.28705,20 -5.52041,13.63098 -22.37857,13.47015 -30.01001,1.99927 -3.82522,-5.74976 -2.70294,-13.44165 -2.70294,-19.99927 v -42 h -25 m 185,0 1,94 c 22.25403,-5.29822 50.11609,-1 73,-1 v -23 h -48 l -1,-13 h 44 l -1,-21 h -43 v -14 h 47 v -22 h -72 m -250,20.3287 c 31.64481,-2.72451 36.75253,47.05747 5,50.49772 -33.4863,3.62805 -37.98509,-47.65784 -5,-50.49772 m -120,84.10343 c -22.558372,2.97064 -33.115332,33.52295 -16.787032,50.38269 6.60845,6.82355 16.751072,8.1283 25.787032,7 33.39526,-4.17011 25.64021,-61.94446 -9,-57.38269 m 39,56.56787 h 12 v -33 h 1 c 3.12274,8.25079 12.48238,27.45935 20.20987,31.97223 3.21861,1.8797 8.20183,1.02777 11.79013,1.02777 v -56 h -11 v 34 c -8.19832,-7.94312 -12.65164,-28.96112 -23.18518,-33.39661 -2.70827,-1.14038 -8.69415,-1.36902 -10.21143,1.71448 -1.98085,4.02564 -0.60339,11.27771 -0.60339,15.68213 v 38 m 85,-56 v 10 h 16 v 46 h 12 v -46 h 15 v -10 h -43 m 54,0 v 56 h 12 v -24 h 21 v 24 h 12 v -56 h -12 v 22 h -21 c 0,-12.7514 3.22018,-22 -12,-22 m 56,0 v 56 h 42 v -10 h -30 v -14 h 27 v -10 h -27 v -12 h 29 v -10 h -41 m 83,6 -29.4213,68 -14.5787,36 h 26 c 1.47949,-5.13574 4.49451,-15.83655 8.51001,-19.39661 2.45865,-2.17981 6.46036,-1.60205 9.48999,-1.60339 7.70224,-0.003 24.11707,-3.11096 30.72223,1.02777 6.17618,3.86994 3.68588,16.22583 10.55246,19.36884 5.66556,2.59326 18.30945,0.58569 24.72531,0.60339 l -32.13889,-75 -13.51004,-27.93286 -20.35107,-1.06714 m 77,1 0.42902,72 0.57098,32 25,-1 v -104 l -26,1 m 48,0 v 104 l 25,-1 v -33 h 15 c 2.01947,11.3288 11.19849,24.06006 17,34 l 29,-1 c -3.77014,-8.7381 -9.80939,-17.02173 -15,-25 -1.85095,-2.84497 -5.61884,-7.22821 -5.00623,-10.89581 0.66547,-3.98401 7.62018,-7.02137 10.10651,-10.14429 6.53375,-8.20673 9.60651,-18.53296 7.38196,-28.9599 -7.84155,-36.75549 -55.9339,-28 -83.48224,-28 m -442.99923,3.41895 c 21.23637,-5.30628 26.54531,30.97821 7.99846,36.01159 -20.492222,5.56134 -26.396792,-31.41437 -7.99846,-36.01159 m 467.99923,45.58105 v -28 c 7.87079,0.99475 19.02142,-0.99036 25.98456,3.08948 7.91723,4.63891 9.98675,17.60803 0.92206,22.33801 -7.68995,4.01257 -18.54682,2.57251 -26.90662,2.57251 m -139,-18 12,31 -24,-1 c 1.42352,-9.50366 6.68912,-22.00238 12,-30 m -65,49 h -221 c -17.41143,0 -35.67731,-1.59705 -53.000002,0.10492 -6.48071,0.63678 -14.69951,5.45404 -11.62808,12.89508 1.82701,4.42621 5.80391,9.47217 10.62808,10.68213 17.451382,4.37683 40.972412,0.31787 59.000002,0.31787 h 145 41 c 5.03766,0 13.08041,1.52307 17.72531,-0.60339 5.14444,-2.35517 10.35697,-18.12671 12.27469,-23.39661 z"
       id="path1" />
  </g>
</svg>
