<svg xmlns="http://www.w3.org/2000/svg" width="100" height="100" viewBox="0 0 100 100">
  <g fill="none" stroke="#ffffff" stroke-width="0.8" stroke-opacity="0.2">
    <!-- Radio waves pattern -->
    <circle cx="25" cy="25" r="5" />
    <circle cx="25" cy="25" r="10" />
    <circle cx="25" cy="25" r="15" />

    <circle cx="75" cy="75" r="5" />
    <circle cx="75" cy="75" r="10" />
    <circle cx="75" cy="75" r="15" />

    <circle cx="25" cy="75" r="4" />
    <circle cx="25" cy="75" r="8" />
    <circle cx="25" cy="75" r="12" />

    <circle cx="75" cy="25" r="4" />
    <circle cx="75" cy="25" r="8" />
    <circle cx="75" cy="25" r="12" />

    <!-- House outlines -->
    <path d="M50,15 L40,25 L40,35 L60,35 L60,25 Z" stroke-width="1" />
    <path d="M15,50 L5,60 L5,70 L25,70 L25,60 Z" stroke-width="1" />
    <path d="M85,50 L75,60 L75,70 L95,70 L95,60 Z" stroke-width="1" />
  </g>
</svg>
